# xmcd
#
# Track frame offsets: 
#        150
#        20665
#        43970
#        64995
#        91820
#        115160
#        130412
#        147100
#        164932
#        186615
#        204205
#
# Disc length: 2929 seconds
#
# Revision: 0
# Processed by: cddbd v1.5.2PL0 Copyright (c) Steve Scherf et al.
# Submitted via: ExactAudioCopyFreeDBPlugin 1.0
#
DISCID=aa0b6f0b
DTITLE=พงษ์เทพ กระโดนชำนาญ - 03-490-32-63
DYEAR=1900
DGENRE=
TTITLE0=จ รอคอย
TTITLE1=น้ำตาหอยทาก
TTITLE2=มือที่สาม
TTITLE3=03-490-32-63
TTITLE4=ทดแทน
TTITLE5=วันลา
TTITLE6=เสียเชิงชาย
TTITLE7=สายเกินไป
TTITLE8=บาร์เทนดี้
TTITLE9=ดินโป่ง
TTITLE10=วันลา (บรรเลง)
EXTD=
EXTT0=
EXTT1=
EXTT2=
EXTT3=
EXTT4=
EXTT5=
EXTT6=
EXTT7=
EXTT8=
EXTT9=
EXTT10=
PLAYORDER=
